ModelForces
version=1
nRows=4
nColumns=157
inDegrees=no

This file contains the forces exerted on a model during a simulation.

A force is a generalized force, meaning that it can be either a force (N) or a torque (Nm).

Units are S.I. units (second, meters, Newtons, ...)
Angles are in degrees.

endheader
time	glut_med1_r	glut_med2_r	glut_med3_r	glut_min1_r	glut_min2_r	glut_min3_r	semimem_r	semiten_r	bifemlh_r	bifemsh_r	sar_r	add_long_r	add_brev_r	add_mag1_r	add_mag2_r	add_mag3_r	tfl_r	pect_r	grac_r	glut_max1_r	glut_max2_r	glut_max3_r	iliacus_r	psoas_r	quad_fem_r	gem_r	peri_r	rect_fem_r	vas_med_r	vas_int_r	vas_lat_r	med_gas_r	lat_gas_r	soleus_r	tib_post_r	flex_dig_r	flex_hal_r	tib_ant_r	per_brev_r	per_long_r	per_tert_r	ext_dig_r	ext_hal_r	glut_med1_l	glut_med2_l	glut_med3_l	glut_min1_l	glut_min2_l	glut_min3_l	semimem_l	semiten_l	bifemlh_l	bifemsh_l	sar_l	add_long_l	add_brev_l	add_mag1_l	add_mag2_l	add_mag3_l	tfl_l	pect_l	grac_l	glut_max1_l	glut_max2_l	glut_max3_l	iliacus_l	psoas_l	quad_fem_l	gem_l	peri_l	rect_fem_l	vas_med_l	vas_int_l	vas_lat_l	med_gas_l	lat_gas_l	soleus_l	tib_post_l	flex_dig_l	flex_hal_l	tib_ant_l	per_brev_l	per_long_l	per_tert_l	ext_dig_l	ext_hal_l	ercspn_r	ercspn_l	intobl_r	intobl_l	extobl_r	extobl_l	femur_lat_meniscii_r.femur_lat_r.force.X	femur_lat_meniscii_r.femur_lat_r.force.Y	femur_lat_meniscii_r.femur_lat_r.force.Z	femur_lat_meniscii_r.femur_lat_r.torque.X	femur_lat_meniscii_r.femur_lat_r.torque.Y	femur_lat_meniscii_r.femur_lat_r.torque.Z	femur_lat_meniscii_r.meniscus_lat_r.force.X	femur_lat_meniscii_r.meniscus_lat_r.force.Y	femur_lat_meniscii_r.meniscus_lat_r.force.Z	femur_lat_meniscii_r.meniscus_lat_r.torque.X	femur_lat_meniscii_r.meniscus_lat_r.torque.Y	femur_lat_meniscii_r.meniscus_lat_r.torque.Z	femur_med_meniscii_r.femur_med_r.force.X	femur_med_meniscii_r.femur_med_r.force.Y	femur_med_meniscii_r.femur_med_r.force.Z	femur_med_meniscii_r.femur_med_r.torque.X	femur_med_meniscii_r.femur_med_r.torque.Y	femur_med_meniscii_r.femur_med_r.torque.Z	femur_med_meniscii_r.meniscus_med_r.force.X	femur_med_meniscii_r.meniscus_med_r.force.Y	femur_med_meniscii_r.meniscus_med_r.force.Z	femur_med_meniscii_r.meniscus_med_r.torque.X	femur_med_meniscii_r.meniscus_med_r.torque.Y	femur_med_meniscii_r.meniscus_med_r.torque.Z	femur_med_tibia_r.tibia_upper_r.force.X	femur_med_tibia_r.tibia_upper_r.force.Y	femur_med_tibia_r.tibia_upper_r.force.Z	femur_med_tibia_r.tibia_upper_r.torque.X	femur_med_tibia_r.tibia_upper_r.torque.Y	femur_med_tibia_r.tibia_upper_r.torque.Z	femur_med_tibia_r.femur_med_r.force.X	femur_med_tibia_r.femur_med_r.force.Y	femur_med_tibia_r.femur_med_r.force.Z	femur_med_tibia_r.femur_med_r.torque.X	femur_med_tibia_r.femur_med_r.torque.Y	femur_med_tibia_r.femur_med_r.torque.Z	femur_lat_tibia_r.tibia_upper_r.force.X	femur_lat_tibia_r.tibia_upper_r.force.Y	femur_lat_tibia_r.tibia_upper_r.force.Z	femur_lat_tibia_r.tibia_upper_r.torque.X	femur_lat_tibia_r.tibia_upper_r.torque.Y	femur_lat_tibia_r.tibia_upper_r.torque.Z	femur_lat_tibia_r.femur_lat_r.force.X	femur_lat_tibia_r.femur_lat_r.force.Y	femur_lat_tibia_r.femur_lat_r.force.Z	femur_lat_tibia_r.femur_lat_r.torque.X	femur_lat_tibia_r.femur_lat_r.torque.Y	femur_lat_tibia_r.femur_lat_r.torque.Z	aACL_R	pACL_R	aPCL_R	pPCL_R	aMCL_R	mMCL_R	pMCL_R	aLCL_R	mLCL_R	pLCL_R	ground_prescribedForce_fx	ground_prescribedForce_fy	ground_prescribedForce_fz	ground_prescribedForce_px	ground_prescribedForce_py	ground_prescribedForce_pz
      0.48169461	      7.60941534	      5.70809892	      6.11060797	      2.67796193	      3.19952640	      3.21868796	      8.83655336	      4.12290981	      7.85595559	      7.30636276	      1.59955809	      5.65572545	      4.17042341	      2.94057909	      2.47236189	      4.02101855	      3.85289505	      2.25483503	      1.56764925	      3.68337636	      5.59762105	      4.17905493	     22.72438327	     13.05319176	      3.65319163	      2.86672730	      4.13965657	     10.83315709	      6.70787923	      6.81852155	      8.55874961	      4.34263040	      2.16451777	      8.45952307	     12.33663362	      2.74015688	      2.36511911	     15.23742084	      3.39515011	      6.62702374	     10.61885615	      8.26476292	      2.19733407	      7.60941534	      5.70809892	      6.11060797	      2.67796193	      3.19952640	      3.21868796	      8.83482065	      4.11616556	      7.75740812	      7.26881469	      1.53056806	      5.65572545	      4.17042341	      2.94057909	      2.47236189	      4.02101855	      4.11777573	      2.25483503	      1.56999781	      3.68337636	      5.59762105	      4.17905493	     22.72438327	     13.05319176	      3.65319163	      2.86672730	      4.13965657	     10.76862979	      6.64308417	      7.62127010	      8.19460083	     14.17759152	      6.58315965	     31.46311727	     42.50655919	      2.77969425	      2.95238597	      8.52813627	      4.37982646	     12.55784796	      2.01927866	      5.32869547	      1.69255286	     25.18593511	     25.18593511	      9.07046796	      9.07046796	     26.86790689	     26.86790689	     32.94319553	     77.67627447	     12.70591659	     -7.18471243	      0.79192460	     13.82664116	    -32.94319553	    -77.67627447	    -12.70591659	      2.61370233	     -0.93962838	     -1.07220837	     38.75761850	     73.39322218	      6.74736509	     -1.20831742	     -0.87904164	     16.46859633	    -38.75761850	    -73.39322218	     -6.74736509	     -1.08655857	      0.71294284	     -1.47986326	      0.00000000	      0.00000000	      0.00000000	      0.00000000	      0.00000000	      0.00000000	      0.00000000	      0.00000000	      0.00000000	      0.00000000	      0.00000000	      0.00000000	      0.00000000	      0.00000000	      0.00000000	      0.00000000	      0.00000000	      0.00000000	      0.00000000	      0.00000000	      0.00000000	      0.00000000	      0.00000000	      0.00000000	     22.38776968	     49.74349256	      0.00000000	      0.00000000	      0.00000000	      3.07960251	     15.31383956	      0.54314042	      0.00000000	      1.38878904	    110.00000000	      0.00000000	      0.00000000	      0.03000000	     -0.03000000	      0.00000000
      0.48318564	      7.60819956	      5.70726151	      6.10970039	      2.67758572	      3.19911942	      3.21817475	      8.82744077	      4.12009823	      7.85894732	      7.30091005	      1.55349965	      5.65488605	      4.16984282	      2.94015084	      2.47199325	      4.02035446	      3.85310229	      2.25451625	      1.56542018	      3.68283642	      5.59679801	      4.17842920	     22.72286473	     13.05148376	      3.65266725	      2.86648178	      4.13868374	     10.82913113	      6.69887471	      6.81148860	      8.55515969	      4.34743158	      2.16876951	      8.46759166	     12.29782037	      2.75771788	      2.34964702	     15.25021524	      3.41655808	      6.66279649	     10.63467402	      8.23170403	      2.20309087	      7.60819956	      5.70726151	      6.10970039	      2.67758572	      3.19911942	      3.21817475	      8.83305074	      4.11551420	      7.75593506	      7.26777069	      1.53035403	      5.65488605	      4.16984282	      2.94015084	      2.47199325	      4.02035446	      4.11736497	      2.25451625	      1.56977445	      3.68283642	      5.59679801	      4.17842920	     22.72286473	     13.05148376	      3.65266725	      2.86648178	      4.13868374	     10.76662481	      6.64208730	      7.62010436	      8.19335373	     14.17331185	      6.58116944	     31.45573975	     42.50366575	      2.77833808	      2.95139937	      8.52662733	      4.37892312	     12.55568543	      2.01901372	      5.32796620	      1.69234323	     25.18238887	     25.18238887	      9.06907716	      9.06907716	     26.86665759	     26.86665759	     32.85533348	     77.72199796	     12.69062302	     -7.17922149	      0.78984079	     13.78952025	    -32.85533348	    -77.72199796	    -12.69062302	      2.61419619	     -0.93714623	     -1.06876562	     38.81854243	     73.52631234	      6.75958826	     -1.21048679	     -0.88049827	     16.49456185	    -38.81854243	    -73.52631234	     -6.75958826	     -1.08863131	      0.71417295	     -1.48215321	      0.00000000	      0.00000000	      0.00000000	      0.00000000	      0.00000000	      0.00000000	      0.00000000	      0.00000000	      0.00000000	      0.00000000	      0.00000000	      0.00000000	      0.00000000	      0.00000000	      0.00000000	      0.00000000	      0.00000000	      0.00000000	      0.00000000	      0.00000000	      0.00000000	      0.00000000	      0.00000000	      0.00000000	     22.28885238	     49.65628510	      0.00000000	      0.00000000	      0.00000000	      2.90401690	     15.13903785	      0.40057691	      0.00000000	      1.24555876	    110.00000000	      0.00000000	      0.00000000	      0.03000000	     -0.03000000	      0.00000000
      0.48935684	      7.60340894	      5.70396174	      6.10612412	      2.67610331	      3.19751574	      3.21615251	      8.78227028	      4.10807258	      7.87528988	      7.34426435	      1.14731493	      5.65157844	      4.16755536	      2.93846337	      2.47054067	      4.01773774	      3.85409134	      2.25326012	      1.57323762	      3.68070882	      5.59355485	      4.17596356	     22.71688104	     13.04475374	      3.65060097	      2.86551434	      4.13484809	     10.80950209	      6.66165788	      6.78383585	      8.52924314	      4.38124082	      2.19474096	      8.52974245	     12.15201356	      2.81944731	      2.27963100	     15.30198403	      3.49426650	      6.80503916	     10.68422456	      8.14894624	      2.23411667	      7.60340894	      5.70396174	      6.10612412	      2.67610331	      3.19751574	      3.21615251	      8.82607595	      4.11294758	      7.75013038	      7.26365686	      1.52951065	      5.65157844	      4.16755536	      2.93846337	      2.47054067	      4.01773774	      4.11574648	      2.25326012	      1.56889430	      3.68070882	      5.59355485	      4.17596356	     22.71688104	     13.04475374	      3.65060097	      2.86551434	      4.13484809	     10.75872419	      6.63815925	      7.61551091	      8.18843971	     14.15640615	      6.57330757	     31.42665289	     42.49226095	      2.77282152	      2.94741789	      8.52068149	      4.37536301	     12.54715401	      2.01796977	      5.32520416	      1.69155136	     25.16841510	     25.16841510	      9.06359682	      9.06359682	     26.86173485	     26.86173485	     32.90056200	     77.71306149	     12.77450361	     -7.21384816	      0.79067719	     13.80875624	    -32.90056200	    -77.71306149	    -12.77450361	      2.61583283	     -0.93801364	     -1.07031571	     39.06457556	     74.07308756	      6.88564955	     -1.25124478	     -0.88661652	     16.60033387	    -39.06457556	    -74.07308756	     -6.88564955	     -1.09477902	      0.71946660	     -1.49242949	      0.00000000	      0.00000000	      0.00000000	      0.00000000	      0.00000000	      0.00000000	      0.00000000	      0.00000000	      0.00000000	      0.00000000	      0.00000000	      0.00000000	      0.00000000	      0.00000000	      0.00000000	      0.00000000	      0.00000000	      0.00000000	      0.00000000	      0.00000000	      0.00000000	      0.00000000	      0.00000000	      0.00000000	     22.10840509	     49.49726480	      0.00000000	      0.00000000	      0.00000000	      2.50375036	     14.74026377	      0.19581392	      0.00000000	      1.04511993	    110.00000000	      0.00000000	      0.00000000	      0.03000000	     -0.03000000	      0.00000000
      0.49012275	      7.60284053	      5.70357021	      6.10569978	      2.67592740	      3.19732545	      3.21591257	      8.77246036	      4.10419412	      7.87386444	      7.32700492	      1.39127217	      5.65118598	      4.16728379	      2.93826314	      2.47036832	      4.01742727	      3.85350727	      2.25311108	      1.56770604	      3.68045638	      5.59317004	      4.17567100	     22.71617106	     13.04395523	      3.65035579	      2.86539955	      4.13439274	     10.80216895	      6.64298550	      6.76751361	      8.51325349	      4.38078597	      2.19614929	      8.53375170	     12.13519374	      2.82564302	      2.27018720	     15.30902036	      3.50304708	      6.82217623	     10.69344540	      8.14589792	      2.23871793	      7.60284053	      5.70357021	      6.10569978	      2.67592740	      3.19732545	      3.21591257	      8.82524832	      4.11264305	      7.74944162	      7.26316873	      1.52941056	      5.65118598	      4.16728379	      2.93826314	      2.47036832	      4.01742727	      4.11555445	      2.25311108	      1.56878986	      3.68045638	      5.59317004	      4.17567100	     22.71617106	     13.04395523	      3.65035579	      2.86539955	      4.13439274	     10.75778675	      6.63769317	      7.61496590	      8.18785665	     14.15439570	      6.57237262	     31.42319992	     42.49090737	      2.77214724	      2.94693479	      8.51997601	      4.37494054	     12.54614064	      2.01784591	      5.32488907	      1.69146124	     25.16675693	     25.16675693	      9.06294657	      9.06294657	     26.86115076	     26.86115076	     32.89881134	     77.69624717	     12.78261996	     -7.21682165	      0.79059269	     13.80806234	    -32.89881134	    -77.69624717	    -12.78261996	      2.61552776	     -0.93789667	     -1.07029284	     39.09575817	     74.14224752	      6.90422147	     -1.25749675	     -0.88742748	     16.61387483	    -39.09575817	    -74.14224752	     -6.90422147	     -1.09547475	      0.72017403	     -1.49388597	      0.00000000	      0.00000000	      0.00000000	      0.00000000	      0.00000000	      0.00000000	      0.00000000	      0.00000000	      0.00000000	      0.00000000	      0.00000000	      0.00000000	      0.00000000	      0.00000000	      0.00000000	      0.00000000	      0.00000000	      0.00000000	      0.00000000	      0.00000000	      0.00000000	      0.00000000	      0.00000000	      0.00000000	     22.16436719	     49.55020052	      0.00000000	      0.00000000	      0.00000000	      2.64258462	     14.87565467	      0.41603890	      0.00000000	      1.26706430	    110.00000000	      0.00000000	      0.00000000	      0.03000000	     -0.03000000	      0.00000000
